<svg id="Layer_1" data-name="Layer 1" xmlns="http://www.w3.org/2000/svg" viewBox="0 0 1024 300"><defs><style>.cls-1{fill:#fff;}.cls-2{fill:#6ad4eb;}</style></defs><title>pulse</title><rect class="cls-1" x="-27" y="73.09" width="1078" height="278.09"/><polygon class="cls-2" points="958.99 143.83 930.99 86.28 906.99 180.81 886.99 133.55 874.99 159.48 841.99 7.25 811.99 272.25 774.99 64.59 760.99 194.76 742.99 143.83 674.99 143.83 655.34 101.68 638.99 168.01 617.99 112.63 608.99 143.83 562.89 143.83 550.99 143.83 458.01 143.83 445.89 143.83 400.01 143.83 391.01 112.63 370.01 168.01 353.66 101.68 334.01 143.83 266.01 143.83 248.01 194.76 234.01 64.59 197.01 272.25 167.01 7.25 134.01 159.48 122.01 133.55 102.01 180.81 78.01 86.28 50.01 143.83 -33.99 143.83 -33.99 161.75 -33.99 376.75 445.89 376.75 467.89 376.75 541.11 376.75 562.89 376.75 1042.99 376.75 1042.99 161.75 1042.99 143.83 958.99 143.83"/></svg>